<svg width="25" height="25" viewBox="0 0 25 25" >
<path d="M22.2766 5.17657L20.4286 3.32857L18.7366 1.63657C18.6247 1.52469 18.4918 1.43593 18.3457 1.37538C18.1995 1.31483 18.0428 1.28366 17.8846 1.28366C17.7263 1.28366 17.5696 1.31483 17.4235 1.37538C17.2773 1.43593 17.1444 1.52469 17.0326 1.63657C16.9207 1.74846 16.8319 1.88129 16.7714 2.02747C16.7108 2.17366 16.6796 2.33034 16.6796 2.48857C16.6796 2.6468 16.7108 2.80349 16.7714 2.94967C16.8319 3.09586 16.9207 3.22869 17.0326 3.34057L18.2326 4.54057L17.2366 7.52857C17.0259 8.1634 16.9963 8.84435 17.151 9.49506C17.3058 10.1458 17.6387 10.7405 18.1126 11.2126L21.6526 14.8126V20.4286C21.6526 20.7468 21.5261 21.0521 21.3011 21.2771C21.076 21.5021 20.7708 21.6286 20.4526 21.6286C20.1343 21.6286 19.8291 21.5021 19.604 21.2771C19.379 21.0521 19.2526 20.7468 19.2526 20.4286V18.0286C19.2526 17.0738 18.8733 16.1581 18.1981 15.483C17.523 14.8079 16.6073 14.4286 15.6526 14.4286H14.4286V3.62857C14.4286 2.67379 14.0493 1.75812 13.3741 1.08299C12.699 0.407857 11.7833 0.0285721 10.8286 0.0285721H3.62856C2.67378 0.0285721 1.75811 0.407857 1.08298 1.08299C0.407849 1.75812 0.0285645 2.67379 0.0285645 3.62857V20.4286C0.0285645 21.3834 0.407849 22.299 1.08298 22.9742C1.75811 23.6493 2.67378 24.0286 3.62856 24.0286H10.8286C11.7833 24.0286 12.699 23.6493 13.3741 22.9742C14.0493 22.299 14.4286 21.3834 14.4286 20.4286V16.8286H15.6286C15.9468 16.8286 16.252 16.955 16.4771 17.18C16.7021 17.4051 16.8286 17.7103 16.8286 18.0286V20.4286C16.8286 21.3834 17.2078 22.299 17.883 22.9742C18.5581 23.6493 19.4738 24.0286 20.4286 24.0286C21.3833 24.0286 22.299 23.6493 22.9741 22.9742C23.6493 22.299 24.0286 21.3834 24.0286 20.4286V9.42457C24.03 8.63611 23.876 7.85511 23.5753 7.12621C23.2747 6.3973 22.8334 5.7348 22.2766 5.17657ZM12.0286 20.4286C12.0286 20.7468 11.9021 21.0521 11.6771 21.2771C11.452 21.5021 11.1468 21.6286 10.8286 21.6286H3.62856C3.3103 21.6286 3.00508 21.5021 2.78004 21.2771C2.55499 21.0521 2.42856 20.7468 2.42856 20.4286V12.0286H12.0286V20.4286ZM12.0286 9.62857H2.42856V3.62857C2.42856 3.31031 2.55499 3.00509 2.78004 2.78004C3.00508 2.555 3.3103 2.42857 3.62856 2.42857H10.8286C11.1468 2.42857 11.452 2.555 11.6771 2.78004C11.9021 3.00509 12.0286 3.31031 12.0286 3.62857V9.62857ZM21.6286 11.3326L19.7806 9.48457C19.6284 9.32939 19.5212 9.13578 19.4705 8.92443C19.4198 8.71308 19.4274 8.49192 19.4926 8.28457L20.1046 6.43657L20.5726 6.91657C21.2391 7.58221 21.6183 8.48261 21.6286 9.42457V11.3326Z"/>
</svg>
