<svg width="18" height="24" viewBox="0 0 18 24" >
<path d="M9 15.2727C10.1935 15.2727 11.3381 14.813 12.182 13.9946C13.0259 13.1763 13.5 12.0664 13.5 10.9091V4.36364C13.5 3.20633 13.0259 2.09642 12.182 1.27808C11.3381 0.459739 10.1935 0 9 0C7.80653 0 6.66193 0.459739 5.81802 1.27808C4.97411 2.09642 4.5 3.20633 4.5 4.36364V10.9091C4.5 12.0664 4.97411 13.1763 5.81802 13.9946C6.66193 14.813 7.80653 15.2727 9 15.2727ZM6.75 4.36364C6.75 3.78498 6.98705 3.23003 7.40901 2.82086C7.83097 2.41169 8.40326 2.18182 9 2.18182C9.59674 2.18182 10.169 2.41169 10.591 2.82086C11.0129 3.23003 11.25 3.78498 11.25 4.36364V10.9091C11.25 11.4877 11.0129 12.0427 10.591 12.4519C10.169 12.861 9.59674 13.0909 9 13.0909C8.40326 13.0909 7.83097 12.861 7.40901 12.4519C6.98705 12.0427 6.75 11.4877 6.75 10.9091V4.36364ZM18 10.9091C18 10.6198 17.8815 10.3423 17.6705 10.1377C17.4595 9.93312 17.1734 9.81818 16.875 9.81818C16.5766 9.81818 16.2905 9.93312 16.0795 10.1377C15.8685 10.3423 15.75 10.6198 15.75 10.9091C15.75 12.6451 15.0388 14.3099 13.773 15.5374C12.5071 16.7649 10.7902 17.4545 9 17.4545C7.20979 17.4545 5.4929 16.7649 4.22703 15.5374C2.96116 14.3099 2.25 12.6451 2.25 10.9091C2.25 10.6198 2.13147 10.3423 1.92049 10.1377C1.70952 9.93312 1.42337 9.81818 1.125 9.81818C0.826631 9.81818 0.540484 9.93312 0.329505 10.1377C0.118527 10.3423 0 10.6198 0 10.9091C0.00198652 13.0334 0.802937 15.0841 2.2527 16.6767C3.70246 18.2693 5.70148 19.2945 7.875 19.56V21.8182H5.625C5.32663 21.8182 5.04048 21.9331 4.8295 22.1377C4.61853 22.3423 4.5 22.6198 4.5 22.9091C4.5 23.1984 4.61853 23.4759 4.8295 23.6805C5.04048 23.8851 5.32663 24 5.625 24H12.375C12.6734 24 12.9595 23.8851 13.1705 23.6805C13.3815 23.4759 13.5 23.1984 13.5 22.9091C13.5 22.6198 13.3815 22.3423 13.1705 22.1377C12.9595 21.9331 12.6734 21.8182 12.375 21.8182H10.125V19.56C12.2985 19.2945 14.2975 18.2693 15.7473 16.6767C17.1971 15.0841 17.998 13.0334 18 10.9091Z"/>
</svg>
