<svg width="24" height="24" viewBox="0 0 24 24">
<path d="M20.8423 15.3705H5.50587C5.21533 15.3705 4.9367 15.2551 4.73126 15.0496C4.52582 14.844 4.41041 14.5653 4.41041 14.2747C4.41041 13.984 4.52582 13.7053 4.73126 13.4998C4.9367 13.2943 5.21533 13.1788 5.50587 13.1788H16.9425C17.675 13.1789 18.3865 12.9341 18.964 12.4834C19.5415 12.0327 19.952 11.402 20.1303 10.6912L21.9378 3.57914C21.9788 3.4174 21.9824 3.24842 21.9482 3.0851C21.914 2.92177 21.843 2.76841 21.7406 2.6367C21.634 2.50162 21.4972 2.39353 21.3412 2.32119C21.1851 2.24884 21.0142 2.21427 20.8423 2.22028H5.24296C5.01695 1.58079 4.59875 1.02689 4.04569 0.634512C3.49263 0.242131 2.83179 0.0304783 2.15376 0.0285721H1.12402C0.83349 0.0285721 0.554856 0.144028 0.349417 0.34954C0.143979 0.555053 0.0285645 0.833787 0.0285645 1.12443C0.0285645 1.41506 0.143979 1.6938 0.349417 1.89931C0.554856 2.10482 0.83349 2.22028 1.12402 2.22028H2.15376C2.404 2.21299 2.64919 2.29166 2.8485 2.44319C3.04782 2.59473 3.18924 2.80999 3.24922 3.05313L3.31494 3.57914L5.21009 10.9871C4.33849 11.0263 3.51817 11.4103 2.92958 12.0546C2.341 12.6989 2.03238 13.5507 2.0716 14.4226C2.11082 15.2945 2.49468 16.1151 3.13873 16.7039C3.78278 17.2927 4.63426 17.6015 5.50587 17.5622H5.70305C5.52288 18.0588 5.46499 18.5915 5.53427 19.1152C5.60355 19.6389 5.79797 20.1382 6.10105 20.5707C6.40413 21.0033 6.80696 21.3565 7.27542 21.6003C7.74388 21.8441 8.26417 21.9714 8.79225 21.9714C9.32032 21.9714 9.84061 21.8441 10.3091 21.6003C10.7775 21.3565 11.1804 21.0033 11.4834 20.5707C11.7865 20.1382 11.9809 19.6389 12.0502 19.1152C12.1195 18.5915 12.0616 18.0588 11.8814 17.5622H14.4667C14.2866 18.0588 14.2287 18.5915 14.298 19.1152C14.3672 19.6389 14.5616 20.1382 14.8647 20.5707C15.1678 21.0033 15.5706 21.3565 16.0391 21.6003C16.5076 21.8441 17.0279 21.9714 17.5559 21.9714C18.084 21.9714 18.6043 21.8441 19.0728 21.6003C19.5412 21.3565 19.944 21.0033 20.2471 20.5707C20.5502 20.1382 20.7446 19.6389 20.8139 19.1152C20.8832 18.5915 20.8253 18.0588 20.6451 17.5622H20.8423C21.1328 17.5622 21.4115 17.4468 21.6169 17.2413C21.8224 17.0358 21.9378 16.757 21.9378 16.4664C21.9378 16.1757 21.8224 15.897 21.6169 15.6915C21.4115 15.486 21.1328 15.3705 20.8423 15.3705ZM19.4401 4.41199L18.0051 10.1543C17.9451 10.3974 17.8037 10.6127 17.6044 10.7642C17.405 10.9157 17.1598 10.9944 16.9096 10.9871H7.45578L5.81259 4.41199H19.4401ZM8.79225 19.7539C8.57558 19.7539 8.36379 19.6897 8.18364 19.5693C8.00349 19.4488 7.86309 19.2777 7.78017 19.0775C7.69726 18.8772 7.67557 18.6569 7.71783 18.4443C7.7601 18.2317 7.86444 18.0365 8.01764 17.8832C8.17084 17.7299 8.36603 17.6256 8.57853 17.5833C8.79103 17.541 9.01129 17.5627 9.21146 17.6457C9.41163 17.7286 9.58272 17.8691 9.70309 18.0493C9.82346 18.2295 9.88771 18.4413 9.88771 18.6581C9.88771 18.9487 9.77229 19.2275 9.56685 19.433C9.36141 19.6385 9.08278 19.7539 8.79225 19.7539ZM17.5559 19.7539C17.3393 19.7539 17.1275 19.6897 16.9473 19.5693C16.7672 19.4488 16.6268 19.2777 16.5439 19.0775C16.4609 18.8772 16.4392 18.6569 16.4815 18.4443C16.5238 18.2317 16.6281 18.0365 16.7813 17.8832C16.9345 17.7299 17.1297 17.6256 17.3422 17.5833C17.5547 17.541 17.775 17.5627 17.9751 17.6457C18.1753 17.7286 18.3464 17.8691 18.4668 18.0493C18.5871 18.2295 18.6514 18.4413 18.6514 18.6581C18.6514 18.9487 18.536 19.2275 18.3305 19.433C18.1251 19.6385 17.8465 19.7539 17.5559 19.7539Z"/>
</svg>
