<svg width="24" height="20" viewBox="0 0 24 20" >
<path d="M1.2 12C0.881741 12 0.576516 12.1264 0.351472 12.3515C0.126429 12.5765 4.75029e-07 12.8817 4.75029e-07 13.2C4.75029e-07 13.5183 0.126429 13.8235 0.351472 14.0485C0.576516 14.2736 0.881741 14.4 1.2 14.4C2.15478 14.4 3.07045 14.7793 3.74558 15.4544C4.42072 16.1295 4.8 17.0452 4.8 18C4.8 18.3183 4.92643 18.6235 5.15147 18.8485C5.37652 19.0736 5.68174 19.2 6 19.2C6.31826 19.2 6.62349 19.0736 6.84853 18.8485C7.07357 18.6235 7.2 18.3183 7.2 18C7.2 16.4087 6.56786 14.8826 5.44264 13.7574C4.31742 12.6321 2.7913 12 1.2 12ZM0.348 17.148C0.181162 17.3162 0.0678497 17.53 0.0223439 17.7626C-0.0231618 17.9951 0.00117544 18.2358 0.0922888 18.4545C0.183402 18.6732 0.337214 18.8601 0.534339 18.9915C0.731465 19.1229 0.963082 19.193 1.2 19.193C1.43692 19.193 1.66854 19.1229 1.86566 18.9915C2.06279 18.8601 2.2166 18.6732 2.30771 18.4545C2.39883 18.2358 2.42316 17.9951 2.37766 17.7626C2.33215 17.53 2.21884 17.3162 2.052 17.148C1.94044 17.0355 1.80772 16.9463 1.66149 16.8853C1.51526 16.8244 1.35841 16.793 1.2 16.793C1.04159 16.793 0.88474 16.8244 0.738509 16.8853C0.592278 16.9463 0.459556 17.0355 0.348 17.148ZM20.4 0H3.6C2.64522 0 1.72955 0.379285 1.05442 1.05442C0.379285 1.72955 4.75029e-07 2.64522 4.75029e-07 3.6C4.75029e-07 3.91826 0.126429 4.22348 0.351472 4.44853C0.576516 4.67357 0.881741 4.8 1.2 4.8C1.51826 4.8 1.82349 4.67357 2.04853 4.44853C2.27357 4.22348 2.4 3.91826 2.4 3.6C2.4 3.28174 2.52643 2.97652 2.75147 2.75147C2.97652 2.52643 3.28174 2.4 3.6 2.4H20.4C20.7183 2.4 21.0235 2.52643 21.2485 2.75147C21.4736 2.97652 21.6 3.28174 21.6 3.6V15.6C21.6 15.9183 21.4736 16.2235 21.2485 16.4485C21.0235 16.6736 20.7183 16.8 20.4 16.8H15.6C15.2817 16.8 14.9765 16.9264 14.7515 17.1515C14.5264 17.3765 14.4 17.6817 14.4 18C14.4 18.3183 14.5264 18.6235 14.7515 18.8485C14.9765 19.0736 15.2817 19.2 15.6 19.2H20.4C21.3548 19.2 22.2705 18.8207 22.9456 18.1456C23.6207 17.4705 24 16.5548 24 15.6V3.6C24 2.64522 23.6207 1.72955 22.9456 1.05442C22.2705 0.379285 21.3548 0 20.4 0ZM1.2 7.2C0.881741 7.2 0.576516 7.32643 0.351472 7.55147C0.126429 7.77652 4.75029e-07 8.08174 4.75029e-07 8.4C4.75029e-07 8.71826 0.126429 9.02348 0.351472 9.24853C0.576516 9.47357 0.881741 9.6 1.2 9.6C3.42782 9.6 5.56439 10.485 7.1397 12.0603C8.715 13.6356 9.6 15.7722 9.6 18C9.6 18.3183 9.72643 18.6235 9.95147 18.8485C10.1765 19.0736 10.4817 19.2 10.8 19.2C11.1183 19.2 11.4235 19.0736 11.6485 18.8485C11.8736 18.6235 12 18.3183 12 18C12 15.1357 10.8621 12.3886 8.83675 10.3632C6.81136 8.33785 4.06434 7.2 1.2 7.2Z"/>
</svg>
