<svg width="22" height="22" viewBox="0 0 22 22">
<path d="M7.17892 11.5287C6.9617 11.5287 6.74935 11.593 6.56874 11.7136C6.38812 11.8341 6.24735 12.0054 6.16422 12.2058C6.08109 12.4063 6.05934 12.6268 6.10172 12.8396C6.1441 13.0524 6.2487 13.2479 6.4023 13.4013C6.5559 13.5547 6.7516 13.6591 6.96465 13.7015C7.17771 13.7438 7.39854 13.7221 7.59923 13.639C7.79992 13.556 7.97145 13.4154 8.09213 13.235C8.21282 13.0547 8.27723 12.8426 8.27723 12.6256C8.27723 12.3347 8.16152 12.0557 7.95555 11.85C7.74957 11.6443 7.47021 11.5287 7.17892 11.5287ZM7.17892 6.61447C6.9617 6.61447 6.74935 6.67881 6.56874 6.79934C6.38812 6.91987 6.24735 7.09119 6.16422 7.29162C6.08109 7.49206 6.05934 7.71262 6.10172 7.9254C6.1441 8.13818 6.2487 8.33363 6.4023 8.48704C6.5559 8.64045 6.7516 8.74492 6.96465 8.78725C7.17771 8.82957 7.39854 8.80785 7.59923 8.72482C7.79992 8.6418 7.97145 8.50121 8.09213 8.32082C8.21282 8.14043 8.27723 7.92835 8.27723 7.7114C8.27723 7.42048 8.16152 7.14147 7.95555 6.93576C7.74957 6.73004 7.47021 6.61447 7.17892 6.61447ZM11.012 8.80832C10.7207 8.80832 10.4414 8.92389 10.2354 9.12961C10.0294 9.33532 9.91371 9.61433 9.91371 9.90525V11.0022C9.91371 11.2931 10.0294 11.5721 10.2354 11.7778C10.4414 11.9835 10.7207 12.0991 11.012 12.0991C11.3033 12.0991 11.5827 11.9835 11.7886 11.7778C11.9946 11.5721 12.1103 11.2931 12.1103 11.0022V9.90525C12.1103 9.61433 11.9946 9.33532 11.7886 9.12961C11.5827 8.92389 11.3033 8.80832 11.012 8.80832ZM20.3477 7.23972C19.9688 7.022 19.5503 6.88174 19.1166 6.82713C18.6829 6.77251 18.2427 6.80463 17.8215 6.92161C17.3832 7.03887 16.9751 7.2483 16.6244 7.53589L3.884 0.175525C3.71703 0.0792493 3.52763 0.0285645 3.33484 0.0285645C3.14205 0.0285645 2.95265 0.0792493 2.78569 0.175525C2.61603 0.270766 2.47477 0.40932 2.37635 0.577003C2.27793 0.744687 2.22588 0.935478 2.22555 1.12985V15.5764C1.57739 15.7947 1.0154 16.213 0.620614 16.7709C0.225829 17.3288 0.0186435 17.9975 0.0289297 18.6806C0.0286243 19.5384 0.363681 20.3624 0.962722 20.9771C1.56176 21.5918 2.37744 21.9485 3.23599 21.9714H3.87301C7.47188 21.963 11.0044 21.0036 14.112 19.1907C17.2196 17.3778 19.7916 14.776 21.5668 11.6494C21.9768 10.9013 22.08 10.0234 21.8546 9.2008C21.6292 8.3782 21.0929 7.67512 20.3586 7.23972H20.3477ZM4.42217 3.02753L15.2844 9.29097C14.0794 11.0869 12.4684 12.5746 10.5815 13.634C8.69459 14.6935 6.5847 15.2949 4.42217 15.3899V3.02753ZM19.6557 10.5744C18.0252 13.4436 15.644 15.8158 12.7671 17.437C9.89017 19.0581 6.6259 19.8672 3.32386 19.7776C3.03257 19.7776 2.75321 19.662 2.54724 19.4563C2.34126 19.2506 2.22555 18.9716 2.22555 18.6806C2.22469 18.5337 2.25341 18.388 2.31002 18.2523C2.36662 18.1167 2.44994 17.9937 2.55504 17.8909C2.76138 17.6922 3.03728 17.582 3.32386 17.5837H3.884C6.70414 17.5826 9.47341 16.8335 11.9087 15.4131C14.344 13.9927 16.3579 11.9519 17.7447 9.49939C17.8113 9.37906 17.9024 9.27398 18.0121 9.19086C18.1218 9.10775 18.2477 9.04844 18.3817 9.01674C18.6586 8.94082 18.9543 8.97626 19.2054 9.11546C19.4574 9.25074 19.6466 9.47888 19.7328 9.75134C19.8189 10.0238 19.7952 10.3191 19.6667 10.5744H19.6557Z"/>
</svg>
