<svg width="21" height="22" viewBox="0 0 21 22" >
<path d="M19.5721 6.62979L12.9971 0.865713C12.3944 0.326613 11.6141 0.0285721 10.8055 0.0285721C9.99681 0.0285721 9.21653 0.326613 8.6138 0.865713L2.03881 6.62979C1.69074 6.94108 1.41298 7.32296 1.22402 7.75C1.03507 8.17703 0.939263 8.63941 0.942975 9.10637V18.6839C0.942975 19.5558 1.28934 20.392 1.90586 21.0085C2.52238 21.6251 3.35857 21.9714 4.23047 21.9714H17.3804C18.2523 21.9714 19.0885 21.6251 19.7051 21.0085C20.3216 20.392 20.6679 19.5558 20.6679 18.6839V9.09541C20.6701 8.6303 20.5735 8.17002 20.3846 7.74499C20.1957 7.31997 19.9188 6.93986 19.5721 6.62979ZM12.9971 19.7798H8.6138V14.3006C8.6138 14.01 8.72925 13.7312 8.93476 13.5257C9.14027 13.3202 9.41899 13.2048 9.70963 13.2048H11.9013C12.1919 13.2048 12.4707 13.3202 12.6762 13.5257C12.8817 13.7312 12.9971 14.01 12.9971 14.3006V19.7798ZM18.4763 18.6839C18.4763 18.9746 18.3608 19.2533 18.1553 19.4588C17.9498 19.6643 17.6711 19.7798 17.3804 19.7798H15.1888V14.3006C15.1888 13.4287 14.8424 12.5925 14.2259 11.976C13.6094 11.3595 12.7732 11.0131 11.9013 11.0131H9.70963C8.83773 11.0131 8.00154 11.3595 7.38502 11.976C6.76849 12.5925 6.42213 13.4287 6.42213 14.3006V19.7798H4.23047C3.93984 19.7798 3.66111 19.6643 3.4556 19.4588C3.25009 19.2533 3.13464 18.9746 3.13464 18.6839V9.09541C3.13484 8.93982 3.16816 8.78605 3.23241 8.64434C3.29665 8.50263 3.39033 8.37623 3.50722 8.27353L10.0822 2.52042C10.2822 2.34474 10.5393 2.24785 10.8055 2.24785C11.0716 2.24785 11.3287 2.34474 11.5287 2.52042L18.1037 8.27353C18.2206 8.37623 18.3143 8.50263 18.3785 8.64434C18.4428 8.78605 18.4761 8.93982 18.4763 9.09541V18.6839Z"/>
</svg>
