<svg width="24" height="24" viewBox="0 0 24 24">
<path d="M10.221 14.6096C10.1738 14.6617 10.1299 14.7167 10.0894 14.7742C10.0478 14.8353 10.0146 14.9017 9.99063 14.9716C9.95899 15.0338 9.93681 15.1004 9.9248 15.1691C9.91941 15.2422 9.91941 15.3155 9.9248 15.3886C9.92109 15.5325 9.95115 15.6753 10.0126 15.8055C10.0618 15.9416 10.1405 16.0653 10.2428 16.1677C10.3452 16.27 10.4689 16.3487 10.605 16.3979C10.7364 16.456 10.8784 16.486 11.0219 16.486C11.1655 16.486 11.3075 16.456 11.4389 16.3979C11.575 16.3487 11.6987 16.27 11.801 16.1677C11.9034 16.0653 11.982 15.9416 12.0313 15.8055C12.08 15.6721 12.1024 15.5305 12.0971 15.3886C12.098 15.2442 12.0703 15.101 12.0157 14.9674C11.9611 14.8337 11.8807 14.7121 11.779 14.6096C11.677 14.5068 11.5556 14.4251 11.4219 14.3694C11.2882 14.3137 11.1448 14.2851 11 14.2851C10.8552 14.2851 10.7118 14.3137 10.5781 14.3694C10.4444 14.4251 10.323 14.5068 10.221 14.6096ZM11 0.0285645C8.83005 0.0285645 6.70884 0.672027 4.9046 1.87758C3.10036 3.08314 1.69412 4.79664 0.86372 6.80141C0.0333182 8.80617 -0.183953 11.0122 0.239382 13.1404C0.662717 15.2687 1.70764 17.2236 3.24203 18.758C4.77641 20.2923 6.73133 21.3373 8.85958 21.7606C10.9878 22.1839 13.1938 21.9667 15.1986 21.1363C17.2033 20.3059 18.9168 18.8996 20.1224 17.0954C21.328 15.2911 21.9714 13.1699 21.9714 11C21.9714 9.5592 21.6876 8.13252 21.1363 6.80141C20.5849 5.47029 19.7768 4.26081 18.758 3.24202C17.7392 2.22323 16.5297 1.41508 15.1986 0.863715C13.8675 0.312349 12.4408 0.0285645 11 0.0285645ZM11 19.7771C9.26404 19.7771 7.56707 19.2624 6.12368 18.2979C4.68028 17.3335 3.5553 15.9627 2.89098 14.3589C2.22665 12.755 2.05284 10.9903 2.39151 9.28765C2.73017 7.58506 3.56611 6.02112 4.79362 4.79361C6.02113 3.56611 7.58506 2.73017 9.28766 2.3915C10.9903 2.05283 12.755 2.22665 14.3589 2.89097C15.9627 3.55529 17.3335 4.68028 18.2979 6.12367C19.2624 7.56707 19.7771 9.26404 19.7771 11C19.7771 13.3278 18.8524 15.5603 17.2064 17.2064C15.5603 18.8524 13.3278 19.7771 11 19.7771ZM11 5.51428C10.4219 5.51391 9.85385 5.66582 9.35309 5.95472C8.85232 6.24362 8.43649 6.65932 8.14742 7.15999C8.06804 7.28487 8.01474 7.42451 7.99073 7.57052C7.96671 7.71652 7.97248 7.86588 8.00768 8.0096C8.04288 8.15333 8.1068 8.28844 8.19557 8.40682C8.28435 8.5252 8.39615 8.6244 8.52426 8.69845C8.65237 8.7725 8.79413 8.81988 8.94102 8.83772C9.08792 8.85556 9.2369 8.84351 9.37901 8.80228C9.52112 8.76105 9.65342 8.6915 9.76796 8.59782C9.88249 8.50413 9.97689 8.38825 10.0455 8.25713C10.1421 8.08971 10.2813 7.95079 10.449 7.85446C10.6166 7.75813 10.8067 7.7078 11 7.70856C11.291 7.70856 11.57 7.82415 11.7758 8.02991C11.9815 8.23566 12.0971 8.51472 12.0971 8.80571C12.0971 9.09669 11.9815 9.37575 11.7758 9.5815C11.57 9.78726 11.291 9.90285 11 9.90285C10.709 9.90285 10.43 10.0184 10.2242 10.2242C10.0184 10.4299 9.90285 10.709 9.90285 11V12.0971C9.90285 12.3881 10.0184 12.6672 10.2242 12.8729C10.43 13.0787 10.709 13.1943 11 13.1943C11.291 13.1943 11.57 13.0787 11.7758 12.8729C11.9815 12.6672 12.0971 12.3881 12.0971 12.0971V11.8996C12.8228 11.6364 13.4328 11.1264 13.8205 10.459C14.2082 9.7915 14.3491 9.009 14.2184 8.24824C14.0876 7.48748 13.6937 6.79686 13.1054 6.29711C12.5171 5.79735 11.7719 5.52027 11 5.51428Z"/>
</svg>
