<svg width="22" height="21" viewBox="0 0 22 21">
<path d="M20.974 0.942856H1.02597C0.761439 0.942856 0.507746 1.04794 0.320697 1.23499C0.133648 1.42204 0.0285645 1.67573 0.0285645 1.94026V9.91948C0.0285645 10.184 0.133648 10.4377 0.320697 10.6247C0.507746 10.8118 0.761439 10.9169 1.02597 10.9169H4.01817V19.8935C4.01817 20.158 4.12326 20.4117 4.31031 20.5988C4.49736 20.7858 4.75105 20.8909 5.01558 20.8909H16.9844C17.2489 20.8909 17.5026 20.7858 17.6897 20.5988C17.8767 20.4117 17.9818 20.158 17.9818 19.8935V10.9169H20.974C21.2385 10.9169 21.4922 10.8118 21.6793 10.6247C21.8663 10.4377 21.9714 10.184 21.9714 9.91948V1.94026C21.9714 1.67573 21.8663 1.42204 21.6793 1.23499C21.4922 1.04794 21.2385 0.942856 20.974 0.942856ZM6.01298 18.8961V16.9013C6.54204 16.9013 7.04942 17.1115 7.42352 17.4856C7.79762 17.8597 8.00779 18.367 8.00779 18.8961H6.01298ZM15.987 18.8961H13.9922C13.9922 18.367 14.2024 17.8597 14.5765 17.4856C14.9506 17.1115 15.458 16.9013 15.987 16.9013V18.8961ZM15.987 14.9065C14.9289 14.9065 13.9141 15.3268 13.1659 16.075C12.4177 16.8232 11.9974 17.838 11.9974 18.8961H10.0026C10.0026 17.838 9.58226 16.8232 8.83406 16.075C8.08586 15.3268 7.07109 14.9065 6.01298 14.9065V6.92727H15.987V14.9065ZM19.9766 8.92208H17.9818V5.92987C17.9818 5.66534 17.8767 5.41165 17.6897 5.2246C17.5026 5.03755 17.2489 4.93247 16.9844 4.93247H5.01558C4.75105 4.93247 4.49736 5.03755 4.31031 5.2246C4.12326 5.41165 4.01817 5.66534 4.01817 5.92987V8.92208H2.02337V2.93766H19.9766V8.92208ZM11 13.9091C11.5918 13.9091 12.1703 13.7336 12.6624 13.4048C13.1544 13.076 13.538 12.6087 13.7644 12.0619C13.9909 11.5152 14.0502 10.9136 13.9347 10.3331C13.8193 9.7527 13.5343 9.21954 13.1158 8.80107C12.6973 8.3826 12.1642 8.09762 11.5837 7.98217C11.0033 7.86671 10.4017 7.92597 9.85493 8.15244C9.30817 8.37891 8.84085 8.76243 8.51206 9.2545C8.18328 9.74657 8.00779 10.3251 8.00779 10.9169C8.00779 11.7105 8.32303 12.4715 8.88418 13.0327C9.44533 13.5938 10.2064 13.9091 11 13.9091ZM11 9.91948C11.1973 9.91948 11.3901 9.97798 11.5541 10.0876C11.7181 10.1972 11.846 10.3529 11.9215 10.5352C11.997 10.7174 12.0167 10.918 11.9782 11.1115C11.9397 11.3049 11.8448 11.4827 11.7053 11.6222C11.5658 11.7616 11.3881 11.8566 11.1946 11.8951C11.0011 11.9336 10.8006 11.9139 10.6183 11.8384C10.4361 11.7629 10.2803 11.635 10.1707 11.471C10.0611 11.307 10.0026 11.1141 10.0026 10.9169C10.0026 10.6524 10.1077 10.3987 10.2947 10.2116C10.4818 10.0246 10.7355 9.91948 11 9.91948Z"/>
</svg>
